# xmcd
#
# Track frame offsets:
# 150
# 16510
# 32860
# 54185
# 72987
# 92535
# 112870
# 132297
# 152232
# 170715
# 189265
# 205590
# 222777
#
# Disc length: 3214 seconds
#
#
# Revision: 0
# Processed by: cddbd v1.5.1PL2 Copyright (c) Steve Scherf et al.
# Submitted via: FreeRIP 2.945 
#
DISCID=a10c8c0d
DTITLE=Val Martins - Perto do Senhor
DYEAR=2000
DGENRE=Gospel
TTITLE0=Perto do Senhor
TTITLE1=Em todos os sentidos
TTITLE2=Meu sonho de amor
TTITLE3=Refúgio e abrigo
TTITLE4=Na estrada dessa vida
TTITLE5=Pensando em você
TTITLE6=Pai
TTITLE7=Gratidão
TTITLE8=Perfeito amor
TTITLE9=Em teus átrios
TTITLE10=Meu clamor
TTITLE11=Nada vai me separar de Ti
TTITLE12=É tempo de mudar
EXTD=
EXTT0=
EXTT1=
EXTT2=
EXTT3=
EXTT4=
EXTT5=
EXTT6=
EXTT7=
EXTT8=
EXTT9=
EXTT10=
EXTT11=
EXTT12=
PLAYORDER=
